:SAMPLES-PER-SECOND 30
:FRAME-RANGE 1-1086
:FULLY-SPECIFIED
:DEGREES
374
root  -45.9751 39.2541 55.1116 -164.008 -79.8513 165.833
RightUpLeg  -2.84496 -7.01411 -4.23473
RightLeg  15.4765 1.04506 0.321664
RightFoot  -16.4097 0.00743685 2.67887
RightToes  1.21801e-010 1.2921e-014 -6.02303e-014
Spine  -8.78141 -4.69755 -0.0362391
Spine1  9.00992 -4.97343 0.681721
HEad  16.6336 -6.42014 -5.6491
LeftShoulder1  1.72239 -2.62339 -23.0299
LeftArm  8.14006 -3.61809 -55.9265
LeftForeArm  28.5712 -2.13068 -14.5524
LeftHand  -0.0407745 4.00394 1.71479
RightShoulder  1.02973 -0.256962 27.6894
RightArm  -25.8996 -6.44761 41.3035
RightForeArm  62.7612 -5.58604 3.58734
RightHand  0.10244 -6.4427 -13.4612
LeftUpLeg  -8.57038 4.29789 0.509006
LeftLeg  25.5328 10.9053 5.95777
LeftFoot  -12.119 0.0349613 -5.53963
LeftToes  3.79492e-011 -8.60219e-011 1.56273e-011
375
root  -45.8741 39.2923 55.2389 -162.717 -81.1088 164.867
RightUpLeg  -2.83209 -7.3501 -4.11319
RightLeg  14.6571 0.113796 0.13875
RightFoot  -16.0966 0.0166337 3.02625
RightToes  1.21801e-010 1.2921e-014 -6.02303e-014
Spine  -9.51388 -4.84701 -0.403067
Spine1  9.11776 -5.17283 0.722472
HEad  16.964 -6.42881 -5.07889
LeftShoulder1  1.7689 -2.85149 -22.6913
LeftArm  8.89747 -4.51033 -55.337
LeftForeArm  26.3 -2.39208 -14.6596
LeftHand  -0.0381328 3.79129 1.63401
RightShoulder  1.01639 -0.287325 27.5801
RightArm  -24.4325 -7.35661 40.4978
RightForeArm  58.3848 -5.86868 4.39186
RightHand  0.0251279 -5.7959 -12.5526
LeftUpLeg  -6.12884 5.81032 0.460114
LeftLeg  20.3513 9.057 4.02673
LeftFoot  -11.6754 0.0442115 -8.7729
LeftToes  3.79492e-011 -8.60219e-011 1.56273e-011
376
root  -45.771 39.3241 55.4037 -160.654 -82.6912 163.056
RightUpLeg  -2.8883 -8.02023 -4.07273
RightLeg  14.161 -0.768345 0.0226424
RightFoot  -15.4319 0.00811117 3.15423
RightToes  1.21801e-010 1.2921e-014 -6.02303e-014
Spine  -9.78438 -5.04131 -0.95265
Spine1  8.93998 -5.46327 0.976062
HEad  17.14 -6.80392 -4.46627
LeftShoulder1  1.87115 -3.31769 -22.1859
LeftArm  9.00393 -6.37561 -54.6299
LeftForeArm  25.0347 -2.36462 -14.6982
LeftHand  -0.038296 3.77523 1.31301
RightShoulder  0.994272 -0.326396 27.2624
RightArm  -22.9973 -7.3708 39.9473
RightForeArm  54.1172 -3.745 5.436
RightHand  -0.00438492 -5.52073 -12.2561
LeftUpLeg  -4.2154 5.69345 0.285105
LeftLeg  15.2403 8.3993 2.71892
LeftFoot  -10.0674 0.156316 -8.6317
LeftToes  3.79492e-011 -8.60219e-011 1.56273e-011
377
root  -45.6521 39.3636 55.6194 -157.077 -84.8033 159.571
RightUpLeg  -2.6974 -8.58361 -4.02223
RightLeg  13.6979 -2.08562 -0.157738
RightFoot  -14.3058 -0.0159969 3.12777
RightToes  1.21801e-010 1.2921e-014 -6.02303e-014
Spine  -9.74131 -5.43911 -1.58067
Spine1  8.91492 -5.99805 1.52086
HEad  17.0516 -7.46518 -3.69692
LeftShoulder1  2.0035 -3.96824 -21.4361
LeftArm  7.41769 -9.29637 -54.0128
LeftForeArm  24.7008 -1.62375 -14.5978
LeftHand  -0.0361638 3.74847 1.18483
RightShoulder  0.966596 -0.393964 27.0716
RightArm  -21.8395 -6.14799 39.4091
RightForeArm  50.0656 -0.149719 6.45456
RightHand  -0.0253766 -5.31552 -12.2606
LeftUpLeg  -2.9794 3.55544 -0.0895459
LeftLeg  11.649 9.80489 2.6861
LeftFoot  -9.91897 0.148883 -7.20473
LeftToes  3.79492e-011 -8.60219e-011 1.56273e-011
378
root  -45.5271 39.4215 55.8666 -146.355 -87.0577 148.808
RightUpLeg  -2.35763 -8.59299 -3.90078
RightLeg  13.1169 -4.44417 -0.597915
RightFoot  -12.8776 -0.04856 2.88814
RightToes  1.21801e-010 1.2921e-014 -6.02303e-014
Spine  -9.61311 -5.80794 -2.31804
Spine1  9.0794 -6.51469 2.14144
HEad  16.9064 -8.53897 -2.88215
LeftShoulder1  2.21472 -4.98228 -20.5614
LeftArm  6.35315 -13.3125 -53.3072
LeftForeArm  23.0972 -0.482018 -14.6637
LeftHand  -0.0332333 3.77835 0.97126
RightShoulder  0.950074 -0.424453 26.8358
RightArm  -20.9992 -4.33987 39.0362
RightForeArm  44.428 3.75479 7.30437
RightHand  -0.0446323 -5.1245 -12.0539
LeftUpLeg  -2.56495 1.66114 -0.775114
LeftLeg  9.83495 9.63851 3.32311
LeftFoot  -9.13258 0.163282 -5.62942
LeftToes  3.79492e-011 -8.60219e-011 1.56273e-011
379
root  -45.3939 39.4115 56.1102 -121.994 -88.4822 124.214
RightUpLeg  -2.48434 -8.15676 -3.65483
RightLeg  13.6928 -6.56184 -1.4494
RightFoot  -12.3853 -0.0481391 3.93607
RightToes  1.21801e-010 1.2921e-014 -6.02303e-014
Spine  -9.3402 -5.89403 -2.8317
Spine1  9.44879 -6.66281 2.33733
HEad  17.1067 -9.49789 -1.66418
LeftShoulder1  2.3398 -5.85878 -19.2839
LeftArm  4.261 -17.8214 -52.8558
LeftForeArm  22.2291 0.778443 -14.4147
LeftHand  -0.0264871 3.89586 0.439252
RightShoulder  0.963173 -0.363293 26.5901
RightArm  -20.6098 -1.73677 39.1092
RightForeArm  38.7682 7.40867 7.75926
RightHand  -0.0318357 -5.25278 -12.4148
LeftUpLeg  -2.67083 1.2491 -0.935083
LeftLeg  9.72284 8.3397 3.38821
LeftFoot  -9.07153 0.150967 -4.87473
LeftToes  3.79492e-011 -8.60219e-011 1.56273e-011
380
root  -45.2037 39.302 56.3253 -101.941 -88.7239 104.064
RightUpLeg  -4.23768 -7.29552 -3.51217
RightLeg  16.7673 -7.83867 -2.82075
RightFoot  -12.5049 -0.0350116 4.90675
RightToes  1.21801e-010 1.2921e-014 -6.02303e-014
Spine  -8.5717 -5.67341 -3.55906
Spine1  9.09514 -6.43862 2.20564
HEad  17.6963 -10.082 -0.482667
LeftShoulder1  2.39332 -6.5452 -17.9492
LeftArm  2.45373 -22.2538 -52.1302
LeftForeArm  20.816 1.6209 -14.0231
LeftHand  -0.0236852 3.81861 0.337645
RightShoulder  1.05469 -0.0624068 26.3923
RightArm  -19.5514 1.70446 39.5844
RightForeArm  32.1937 10.4219 7.49498
RightHand  -0.048475 -5.09528 -12.6039
LeftUpLeg  -3.63342 2.16481 -0.810559
LeftLeg  11.1795 6.75785 2.69771
LeftFoot  -9.8765 0.114799 -4.34842
LeftToes  3.79492e-011 -8.60219e-011 1.56273e-011
381
root  -45.0072 39.0802 56.5207 -103.377 -88.1902 105.452
RightUpLeg  -7.29832 -6.12825 -4.25276
RightLeg  22.3314 -8.36851 -3.96944
RightFoot  -13.3636 0.0167448 6.08405
RightToes  1.21801e-010 1.2921e-014 -6.02303e-014
Spine  -7.86368 -5.44988 -4.86655
Spine1  8.94025 -6.17333 1.76106
HEad  18.1931 -9.9151 0.246044
LeftShoulder1  2.369 -6.92366 -16.7146
LeftArm  1.4977 -26.5628 -50.9115
LeftForeArm  18.0365 1.53523 -13.7377
LeftHand  -0.024104 3.82158 0.554689
RightShoulder  1.19083 0.432866 25.7299
RightArm  -18.0998 5.78906 40.9564
RightForeArm  25.146 13.2515 6.83219
RightHand  -0.0551006 -5.03289 -12.6288
LeftUpLeg  -5.08511 2.35293 -1.59266
LeftLeg  13.7691 6.58889 2.80014
LeftFoot  -11.2147 0.0718711 -4.22062
LeftToes  3.79492e-011 -8.60219e-011 1.56273e-011
382
root  -44.8381 38.9029 56.7275 -115.496 -87.6016 117.246
RightUpLeg  -11.0146 -4.73451 -5.19361
RightLeg  29.4495 -7.49955 -4.78321
RightFoot  -12.9615 0.0248841 7.97928
RightToes  1.21801e-010 1.2921e-014 -6.02303e-014
Spine  -6.76591 -5.22841 -5.71047
Spine1  8.57884 -5.9079 1.28644
HEad  18.6985 -9.105 0.660246
LeftShoulder1  2.35812 -7.31261 -15.6769
LeftArm  -0.142874 -30.4119 -49.0635
LeftForeArm  16.4453 1.1371 -13.1882
LeftHand  -0.0234903 3.61068 0.264415
RightShoulder  1.34467 0.997466 25.1278
RightArm  -16.4413 10.4798 42.4781
RightForeArm  19.2901 15.7256 6.10604
RightHand  -0.037171 -5.20088 -12.3512
LeftUpLeg  -5.94574 2.09127 -2.43834
LeftLeg  15.8568 7.38466 3.35354
LeftFoot  -12.1313 0.0454152 -3.95691
LeftToes  3.79492e-011 -8.60219e-011 1.56273e-011
383
root  -44.7322 38.7439 56.907 -127.191 -86.9012 128.39
RightUpLeg  -14.9274 -3.70038 -5.97799
RightLeg  36.8784 -6.23713 -5.25201
RightFoot  -11.2577 -0.0830363 8.79544
RightToes  1.21801e-010 1.2921e-014 -6.02303e-014
Spine  -5.41756 -5.03891 -6.70456
Spine1  8.06918 -5.82485 1.39619
HEad  19.1362 -7.75752 0.479071
LeftShoulder1  2.36128 -7.74242 -14.7614
LeftArm  -2.56929 -33.5138 -47.0759
LeftForeArm  14.228 0.726355 -12.3184
LeftHand  -0.0213815 3.49724 0.151284
RightShoulder  1.45304 1.4615 24.3398
RightArm  -14.6104 15.2202 44.592
RightForeArm  14.483 18.0088 5.42285
RightHand  0.0205755 -5.74253 -12.8099
LeftUpLeg  -6.3874 2.14833 -3.05902
LeftLeg  17.7832 8.13508 3.79787
LeftFoot  -12.9704 0.0278206 -3.51008
LeftToes  3.79492e-011 -8.60219e-011 1.56273e-011
384
root  -44.7201 38.6114 57.0481 -134.414 -86.1777 135.224
RightUpLeg  -18.2291 -2.87865 -6.63775
RightLeg  41.9028 -4.56304 -4.6515
RightFoot  -10.877 -0.096915 5.67647
RightToes  1.21801e-010 1.2921e-014 -6.02303e-014
Spine  -4.5351 -4.92749 -7.4938
Spine1  7.75264 -5.77162 1.38985
HEad  19.6039 -6.08763 -0.0381193
LeftShoulder1  2.37468 -8.25609 -13.8444
LeftArm  -4.88088 -36.0612 -45.0092
LeftForeArm  10.7248 0.332921 -11.5406
LeftHand  -0.0175985 3.46242 0.232431
RightShoulder  1.50401 1.73784 23.6533
RightArm  -12.2431 19.51 47.0896
RightForeArm  10.8218 20.4184 4.81497
RightHand  0.0743195 -6.19916 -13.3922
LeftUpLeg  -6.57019 2.31492 -3.58764
LeftLeg  19.1575 8.75886 4.18548
LeftFoot  -13.7213 0.0149424 -3.23922
LeftToes  3.79492e-011 -8.60219e-011 1.56273e-011
385
root  -44.7825 38.5665 57.1599 -138.243 -86.0436 138.846
RightUpLeg  -20.0747 -1.6401 -7.06326
RightLeg  42.4623 -2.78089 -3.00502
RightFoot  -12.4887 -0.0323026 5.23664
RightToes  1.21801e-010 1.2921e-014 -6.02303e-014
Spine  -3.63612 -5.02463 -7.83629
Spine1  7.15723 -5.93709 1.61208
HEad  19.9599 -4.44897 -0.662232
LeftShoulder1  2.3346 -8.42058 -13.1498
LeftArm  -6.50809 -38.6923 -43.1731
LeftForeArm  6.91542 0.242729 -11.0637
LeftHand  -0.0198584 3.95555 -0.152938
RightShoulder  1.55222 2.0209 22.9427
RightArm  -10.1051 22.9481 49.4894
RightForeArm  8.71983 22.8176 4.54059
RightHand  0.108823 -6.51994 -13.2466
LeftUpLeg  -6.43474 2.26376 -3.73574
LeftLeg  19.6641 8.99938 4.4684
LeftFoot  -14.143 -0.00125977 -3.5167
LeftToes  3.79492e-011 -8.60219e-011 1.56273e-011
386
root  -44.9124 38.5846 57.2533 -144.482 -86.15 145.259
RightUpLeg  -21.3018 -0.133923 -7.22775
RightLeg  39.6001 -1.82132 -1.87992
RightFoot  -13.9936 0.0304245 5.41237
RightToes  1.21801e-010 1.2921e-014 -6.02303e-014
Spine  -3.26702 -5.14778 -7.59332
Spine1  6.82572 -6.05444 1.89398
HEad  19.8652 -3.01798 -0.970274
LeftShoulder1  2.33927 -8.85692 -12.4021
LeftArm  -8.78992 -40.5282 -41.5234
LeftForeArm  4.7768 -0.180192 -10.3169
LeftHand  -0.0171225 3.9445 -0.375927
RightShoulder  1.60042 2.32121 22.2089
RightArm  -8.93445 25.6652 51.8378
RightForeArm  8.30784 24.8554 4.88909
RightHand  0.133344 -6.79559 -12.7881
LeftUpLeg  -6.42747 2.42039 -3.45119
LeftLeg  19.6957 9.05584 4.48243
LeftFoot  -14.1753 0.00367315 -3.28541
LeftToes  3.79492e-011 -8.60219e-011 1.56273e-011
